<?xml version="1.0" encoding="utf-8"?>
<!-- Generator: Adobe Illustrator 18.1.1, SVG Export Plug-In . SVG Version: 6.00 Build 0)  -->
<svg version="1.0" id="img-but-20" xmlns="http://www.w3.org/2000/svg" xmlns:xlink="http://www.w3.org/1999/xlink" x="0px" y="0px"
	 width="20px" height="20px" viewBox="-14 16 20 20" enable-background="new -14 16 20 20" xml:space="preserve">
<g id="save_1_" display="none">
	<path display="inline" fill="#69C292" d="M1.2,16.3h-13.9c-0.4,0-0.7,0.3-0.7,0.7v18c0,0.4,0.3,0.8,0.7,0.8H4.6
		c0.4,0,0.8-0.3,0.8-0.8V21.3c0-0.1-0.1-0.3-0.1-0.4L2,16.5C1.7,16.4,1.5,16.3,1.2,16.3L1.2,16.3z M-7.8,17.8H0v7.3h-7.8V17.8z
		 M3.8,34.2H-12V17.8h2.7v8c0,0.4,0.3,0.7,0.7,0.7h9.4c0.4,0,0.7-0.3,0.7-0.7v-7.2l2.4,3L3.8,34.2L3.8,34.2z"/>
	<path display="inline" fill="#69C292" d="M-1.7,19.9c0-0.4-0.3-0.8-0.8-0.8h-0.8c-0.4,0-0.8,0.3-0.8,0.8v3c0,0.4,0.3,0.8,0.8,0.8
		h0.9c0.4,0,0.8-0.3,0.8-0.8L-1.7,19.9L-1.7,19.9z"/>
</g>
<g display="none">
	<g display="inline">
		<path fill="#F26B55" d="M4.3,17.7c-1.6-1.6-4.3-1.6-5.9,0l-11,10.9c-0.1,0.1-0.1,0.2-0.2,0.3l-0.8,6c0,0.2,0,0.3,0.2,0.5
			c0.1,0.1,0.2,0.2,0.4,0.2c0,0,0,0,0.1,0l3.6-0.6c0.3,0,0.5-0.3,0.5-0.6c0-0.3-0.3-0.5-0.6-0.5l-2.9,0.4l0.6-4.2l4.4,4.4
			c0.1,0.1,0.2,0.2,0.4,0.2s0.3-0.1,0.4-0.2L4.3,23.7c0.8-0.8,1.2-1.8,1.2-3C5.5,19.6,5.1,18.5,4.3,17.7L4.3,17.7z M-1.4,19.1
			l1.8,1.8l-9.9,9.9l-1.9-1.8L-1.4,19.1z M-7,33.4l-1.8-1.8l9.9-9.9L3,23.4L-7,33.4z M3.7,22.7l-4.4-4.4c0.6-0.5,1.2-0.7,2-0.7
			c0.8,0,1.6,0.3,2.2,0.9c0.6,0.6,0.9,1.4,0.9,2.2C4.4,21.4,4.2,22.1,3.7,22.7L3.7,22.7z"/>
	</g>
</g>
<path fill="#F26B55" d="M-25.8,20.8"/>
<path display="none" fill="#F26B55" d="M5.2,34.1L-3,26l8-8.3c0.3-0.3,0.3-0.7,0-1c-0.3-0.3-0.7-0.3-1,0L-4,25l-8.3-8
	c-0.2-0.3-0.7-0.3-0.9,0c-0.3,0.3-0.3,0.7,0,1l8.2,8l-8,8.3c-0.3,0.3-0.3,0.7,0,1s0.7,0.3,1,0l8-8.3l8.2,8.1c0.3,0.3,0.7,0.3,1,0
	C5.5,34.8,5.5,34.3,5.2,34.1z"/>
<g>
	<path fill="#F26B55" d="M2.2,18.6h-2.6v-1.7c0-0.3-0.3-0.6-0.6-0.6c0,0-0.1,0-0.1,0c0,0,0,0,0,0h-6.1c-0.3,0-0.6,0.3-0.6,0.6v1.7
		h-2.6c-0.7,0-1.3,0.6-1.3,1.3V22h1.1v12.2c0,0.7,0.6,1.3,1.3,1.3H1.1c0.7,0,1.3-0.6,1.3-1.3V22h1.1v-2.1
		C3.5,19.2,2.9,18.6,2.2,18.6L2.2,18.6z M-6.6,17.5h5v1.1h-5V17.5z M1.2,34.2c0,0.1,0,0.1-0.1,0.1H-9.2c-0.1,0-0.1,0-0.1-0.1V22H1.2
		V34.2z M2.3,20.8h-12.8v-1c0-0.1,0-0.1,0.1-0.1H2.2c0.1,0,0.1,0,0.1,0.1V20.8z M2.3,20.8"/>
	<rect x="-1.9" y="23.4" fill="#F26B55" width="1.2" height="9.8"/>
	<rect x="-4.6" y="23.4" fill="#F26B55" width="1.2" height="9.8"/>
	<rect x="-7.4" y="23.4" fill="#F26B55" width="1.2" height="9.8"/>
</g>
</svg>
