<svg xmlns="http://www.w3.org/2000/svg" width="205" height="16" viewBox="0 0 205 16">
    <g fill="none" fill-rule="evenodd">
        <path fill="#5E9279" d="M32.392 13V3.758h2.996c1.173 0 2.126.366 2.86 1.098.734.732 1.101 1.674 1.101 2.825v1.402c0 1.156-.367 2.097-1.101 2.825-.734.728-1.687 1.092-2.86 1.092h-2.996zm1.543-8.004v6.773h1.409c.766 0 1.368-.25 1.806-.75.438-.499.657-1.144.657-1.936V7.668c0-.783-.22-1.424-.657-1.923-.438-.5-1.04-.75-1.806-.75h-1.41zM44.16 7.522l-.66-.025c-.3 0-.551.063-.752.19a1.254 1.254 0 0 0-.467.54V13H40.74V6.132h1.409l.101.996c.174-.35.397-.626.67-.825.273-.199.587-.298.943-.298.093 0 .18.007.26.022a1.9 1.9 0 0 1 .222.054l-.184 1.441zm.793 1.98c0-1.02.28-1.857.838-2.513.567-.656 1.335-.984 2.304-.984.986 0 1.759.328 2.317.984.563.651.845 1.49.845 2.513v.134c0 1.032-.282 1.874-.845 2.526-.558.648-1.326.971-2.304.971-.982 0-1.754-.326-2.317-.977-.558-.652-.838-1.492-.838-2.52v-.134zm1.543.134c0 .668.131 1.214.393 1.637.259.42.665.629 1.22.629.537 0 .939-.21 1.205-.629.271-.423.406-.969.406-1.637v-.134c0-.655-.135-1.195-.406-1.618-.266-.428-.673-.641-1.219-.641-.537 0-.939.213-1.206.64-.262.428-.393.968-.393 1.62v.133zm12.124.158c0 1-.235 1.805-.705 2.419-.47.614-1.123.92-1.961.92-.39 0-.734-.07-1.035-.21-.3-.139-.558-.344-.774-.615v3.333h-1.543V6.13h1.302l.152.864a2.29 2.29 0 0 1 .797-.736c.31-.17.671-.254 1.082-.254.846 0 1.505.335 1.977 1.006.472.67.708 1.554.708 2.65v.133zm-1.536-.133c0-.702-.133-1.277-.397-1.723-.264-.447-.66-.67-1.184-.67-.321 0-.594.069-.819.206a1.519 1.519 0 0 0-.54.575v3.104c.136.241.316.426.54.555.225.13.502.194.832.194.525 0 .917-.194 1.177-.581.26-.387.39-.896.39-1.527v-.133zm5.833-.159c0-1.02.28-1.857.838-2.513.567-.656 1.335-.984 2.304-.984.986 0 1.759.328 2.317.984.563.651.844 1.49.844 2.513v.134c0 1.032-.281 1.874-.844 2.526-.558.648-1.326.971-2.304.971-.982 0-1.754-.326-2.317-.977-.558-.652-.838-1.492-.838-2.52v-.134zm1.543.134c0 .668.13 1.214.393 1.637.258.42.665.629 1.219.629.537 0 .94-.21 1.206-.629.27-.423.406-.969.406-1.637v-.134c0-.655-.135-1.195-.406-1.618-.267-.428-.673-.641-1.219-.641-.537 0-.94.213-1.206.64-.262.428-.393.968-.393 1.62v.133zm9.528-2.114l-.66-.025c-.301 0-.552.063-.753.19a1.254 1.254 0 0 0-.466.54V13h-1.543V6.132h1.41l.1.996c.174-.35.398-.626.67-.825.274-.199.588-.298.943-.298.093 0 .18.007.26.022a1.9 1.9 0 0 1 .223.054l-.184 1.441zm11.533-3.764v6.195c0 1.024-.334 1.81-1.003 2.358-.668.548-1.542.822-2.621.822-1.058 0-1.915-.275-2.571-.825-.656-.55-.984-1.335-.984-2.355V3.758h1.542v6.195c0 .648.182 1.134.546 1.46.364.326.853.489 1.467.489.634 0 1.14-.163 1.517-.489.376-.326.565-.812.565-1.46V3.758h1.542zm7.662 6.036c0 1-.235 1.805-.705 2.419-.47.614-1.123.92-1.961.92-.39 0-.734-.07-1.035-.21-.3-.139-.558-.344-.774-.615v3.333h-1.543V6.13h1.302l.152.864a2.29 2.29 0 0 1 .797-.736c.31-.17.671-.254 1.082-.254.846 0 1.505.335 1.977 1.006.472.67.708 1.554.708 2.65v.133zm-1.536-.133c0-.702-.133-1.277-.397-1.723-.265-.447-.66-.67-1.184-.67-.321 0-.594.069-.819.206a1.519 1.519 0 0 0-.54.575v3.104c.136.241.316.426.54.555.225.13.502.194.832.194.525 0 .917-.194 1.177-.581.26-.387.39-.896.39-1.527v-.133zM96.174 13H94.63V3.098h1.543V13zm1.44-3.498c0-1.02.28-1.857.838-2.513.567-.656 1.336-.984 2.305-.984.986 0 1.758.328 2.316.984.563.651.845 1.49.845 2.513v.134c0 1.032-.282 1.874-.845 2.526-.558.648-1.326.971-2.304.971-.981 0-1.754-.326-2.317-.977-.558-.652-.837-1.492-.837-2.52v-.134zm1.543.134c0 .668.131 1.214.394 1.637.258.42.664.629 1.218.629.538 0 .94-.21 1.206-.629.271-.423.407-.969.407-1.637v-.134c0-.655-.136-1.195-.407-1.618-.266-.428-.673-.641-1.218-.641-.538 0-.94.213-1.206.64-.263.428-.394.968-.394 1.62v.133zM109.396 13a5.693 5.693 0 0 1-.137-.508 3.63 3.63 0 0 1-.073-.495c-.211.322-.49.591-.834.81a2.124 2.124 0 0 1-1.159.326c-.715 0-1.264-.184-1.647-.552-.383-.368-.575-.874-.575-1.517 0-.664.263-1.182.788-1.552.524-.37 1.263-.555 2.215-.555h1.2v-.603c0-.36-.106-.642-.318-.845-.211-.203-.514-.304-.908-.304-.35 0-.63.084-.837.253a.806.806 0 0 0-.311.654h-1.486l-.006-.038c-.03-.541.213-1.022.727-1.44.514-.42 1.184-.63 2.009-.63.8 0 1.445.204 1.936.61.49.407.736.99.736 1.752v3.053c0 .284.02.556.057.816.038.26.1.515.184.765h-1.561zm-1.892-1.104c.39 0 .74-.098 1.05-.292.312-.195.518-.417.62-.667V9.921h-1.226c-.448 0-.8.111-1.053.334-.254.222-.381.483-.381.784 0 .262.086.47.257.625.171.154.416.232.733.232zm4.545-2.235c0-1.096.235-1.98.705-2.65.47-.67 1.13-1.006 1.98-1.006.373 0 .706.075 1 .225.294.15.549.365.765.645V3.098h1.542V13h-1.295l-.152-.85a2.27 2.27 0 0 1-.793.733c-.31.167-.67.25-1.08.25-.842 0-1.498-.306-1.967-.92-.47-.614-.705-1.42-.705-2.419v-.133zm1.543.133c0 .635.121 1.14.365 1.518.243.376.629.564 1.158.564.326 0 .602-.07.828-.209.227-.14.412-.339.556-.597V8.074a1.624 1.624 0 0 0-.559-.593 1.51 1.51 0 0 0-.812-.213c-.525 0-.912.221-1.162.663-.25.443-.374 1.02-.374 1.73v.133zm11.622.451l.152.686h.039l1.504-4.8h1.688l-2.843 7.91a3.526 3.526 0 0 1-.768 1.225c-.33.339-.798.508-1.403.508-.127 0-.264-.013-.41-.038a5.93 5.93 0 0 1-.422-.089l.172-1.193.234.019c.102.008.178.012.229.012.28 0 .503-.095.67-.285.167-.19.303-.41.41-.66l.253-.623-2.495-6.785h1.682l1.308 4.113zm4.025-.743c0-1.02.279-1.857.837-2.513.567-.656 1.336-.984 2.305-.984.986 0 1.758.328 2.317.984.562.651.844 1.49.844 2.513v.134c0 1.032-.282 1.874-.844 2.526-.56.648-1.327.971-2.305.971-.981 0-1.754-.326-2.317-.977-.558-.652-.837-1.492-.837-2.52v-.134zm1.542.134c0 .668.131 1.214.394 1.637.258.42.664.629 1.218.629.538 0 .94-.21 1.206-.629.271-.423.407-.969.407-1.637v-.134c0-.655-.136-1.195-.407-1.618-.266-.428-.672-.641-1.218-.641-.538 0-.94.213-1.206.64-.263.428-.394.968-.394 1.62v.133zm10.385 2.361a2.35 2.35 0 0 1-.82.841c-.33.197-.71.295-1.142.295-.736 0-1.312-.235-1.726-.704-.415-.47-.622-1.2-.622-2.19V6.132h1.536v4.12c0 .6.097 1.021.292 1.263.195.24.489.361.882.361.373 0 .685-.066.936-.2.252-.133.45-.326.594-.58V6.132h1.542V13h-1.345l-.127-1.003zm6.506-4.475l-.66-.025c-.3 0-.551.063-.752.19a1.254 1.254 0 0 0-.467.54V13h-1.542V6.132h1.409l.101.996c.174-.35.397-.626.67-.825.273-.199.587-.298.943-.298.093 0 .18.007.26.022a1.9 1.9 0 0 1 .222.054l-.184 1.441zM152.376 13V7.274h-1.048V6.132h1.048v-.584c0-.825.243-1.462.73-1.91.486-.45 1.168-.674 2.044-.674.304 0 .607.033.907.099.3.065.646.16 1.035.282l-.235 1.276a7.649 7.649 0 0 0-.774-.219 3.757 3.757 0 0 0-.825-.086c-.462 0-.8.103-1.016.308-.216.206-.324.513-.324.924v.584h1.352v1.142h-1.352V13h-1.542zm5.446 0h-1.542V6.132h1.542V13zm3.377 0h-1.543V3.098h1.543V13zm4.672.133c-.973 0-1.749-.318-2.327-.955-.577-.637-.866-1.455-.866-2.453V9.47c0-.999.287-1.827.86-2.485.573-.658 1.292-.985 2.155-.981.927 0 1.637.28 2.13.84.493.562.74 1.314.74 2.258v.907h-4.285l-.013.032c.025.546.185.992.48 1.34.293.346.7.52 1.221.52.415 0 .77-.05 1.066-.152.297-.102.582-.248.857-.438l.496 1.009c-.259.228-.601.42-1.029.577-.427.157-.922.235-1.485.235zm-.178-5.89c-.38 0-.694.151-.94.454-.245.302-.397.686-.456 1.152l.012.031h2.723v-.158c0-.436-.11-.792-.333-1.067-.222-.275-.557-.412-1.006-.412zm7.973 3.89a.717.717 0 0 0-.305-.59c-.203-.156-.582-.294-1.136-.412-.821-.174-1.442-.42-1.863-.74-.421-.32-.632-.754-.632-1.304 0-.576.244-1.066.73-1.473.487-.406 1.128-.61 1.924-.61.837 0 1.503.207 1.996.62.493.412.729.923.708 1.533l-.013.038h-1.48a.968.968 0 0 0-.323-.73c-.216-.203-.512-.305-.888-.305-.373 0-.656.084-.851.25a.778.778 0 0 0-.292.613c0 .242.092.433.276.575.184.142.558.268 1.12.378.864.177 1.504.428 1.92.752.417.324.626.765.626 1.323 0 .618-.255 1.12-.765 1.505-.51.385-1.182.577-2.015.577-.893 0-1.598-.228-2.114-.685-.516-.457-.762-.982-.737-1.574l.013-.039H171c.017.398.16.688.431.87.271.182.601.273.99.273.398 0 .705-.076.921-.228a.716.716 0 0 0 .324-.616zm7.661-4.112c.229-.322.507-.572.835-.75.328-.177.69-.266 1.089-.266.728 0 1.296.23 1.704.689.408.459.613 1.167.613 2.123V13h-1.543V8.804c0-.541-.108-.933-.324-1.174-.215-.241-.54-.362-.97-.362a1.664 1.664 0 0 0-1.403.705V13h-1.543V3.098h1.542V7.02zm8.786 6.112c-.974 0-1.75-.318-2.327-.955-.578-.637-.866-1.455-.866-2.453V9.47c0-.999.286-1.827.86-2.485.573-.658 1.292-.985 2.155-.981.927 0 1.636.28 2.13.84.492.562.739 1.314.739 2.258v.907h-4.285l-.012.032c.025.546.185.992.479 1.34.294.346.701.52 1.222.52.414 0 .77-.05 1.066-.152.296-.102.582-.248.857-.438l.495 1.009c-.258.228-.6.42-1.028.577-.428.157-.923.235-1.485.235zm-.178-5.89c-.381 0-.694.151-.94.454-.245.302-.397.686-.457 1.152l.013.031h2.723v-.158c0-.436-.11-.792-.333-1.067-.222-.275-.558-.412-1.006-.412zm7.534.279l-.66-.025c-.3 0-.55.063-.752.19a1.254 1.254 0 0 0-.466.54V13h-1.543V6.132h1.41l.1.996c.174-.35.398-.626.67-.825.273-.199.588-.298.943-.298.093 0 .18.007.26.022a1.9 1.9 0 0 1 .223.054l-.185 1.441zm4.025 5.611c-.973 0-1.749-.318-2.327-.955-.577-.637-.866-1.455-.866-2.453V9.47c0-.999.287-1.827.86-2.485.574-.658 1.292-.985 2.155-.981.927 0 1.637.28 2.13.84.493.562.74 1.314.74 2.258v.907H199.9l-.013.032c.025.546.185.992.48 1.34.293.346.7.52 1.221.52.415 0 .77-.05 1.067-.152.296-.102.581-.248.856-.438l.496 1.009c-.259.228-.601.42-1.029.577-.427.157-.922.235-1.485.235zm-.178-5.89c-.38 0-.694.151-.94.454-.245.302-.397.686-.456 1.152l.012.031h2.724v-.158c0-.436-.112-.792-.334-1.067-.222-.275-.557-.412-1.006-.412z"/>
        <g fill="#426B54">
            <path d="M14.602 11.769H1.398v-3.51H.064v4.827h15.872V8.26h-1.334z"/>
            <path d="M8.667 9.713V2.611l2.853 2.82.942-.931L8 .09 3.538 4.5l.942.93 2.853-2.819v7.102z"/>
        </g>
    </g>
</svg>
